<svg width="907" height="233" viewBox="0 0 907 233" fill="none" xmlns="http://www.w3.org/2000/svg">
<path d="M103.341 100.086C106.591 104.96 108.866 109.185 110.491 113.41C111.791 117.634 112.766 122.184 112.766 127.384C112.766 142.657 107.891 155.656 98.1419 167.03C88.3927 178.079 76.0438 183.929 61.42 183.929H0V0.644165H62.3949C74.0939 0.644165 84.1681 4.86879 92.2924 13.3181C100.417 21.7674 104.641 31.8415 104.641 43.8655C104.641 48.7401 104.316 52.3148 103.666 55.2396C103.017 58.1643 101.392 61.7391 99.1168 65.6388C97.1669 68.8885 94.2422 72.4631 90.0176 75.7129C86.7678 78.3126 84.818 80.2626 83.5181 81.5625L88.3927 84.8123C92.9423 88.062 95.867 90.3366 97.8168 91.9615C99.1167 93.9113 101.067 96.5111 103.341 100.086ZM32.8223 70.1885H51.6708C56.5454 70.1885 60.7699 68.2385 64.3446 64.3388C67.9193 60.4391 69.5443 55.8897 69.5443 50.6901C69.5443 45.8155 68.2443 41.5908 65.3195 38.0161C62.3947 34.4414 58.8202 32.4915 54.2705 32.4915H32.8223V70.1885ZM32.8223 150.457H51.3457C59.1451 150.457 65.6445 148.182 71.4941 143.632C77.3436 139.083 79.9433 133.233 79.9433 126.409C79.9433 119.584 77.3435 113.735 72.4689 109.185C67.5943 104.636 61.4199 102.361 54.2705 102.361H33.1473V150.457H32.8223Z" fill="#29283A"/>
<path d="M236.58 142.658V180.354C225.206 185.879 214.157 188.479 203.108 188.479C186.209 188.479 170.286 182.304 155.662 169.63C146.563 161.831 140.063 153.707 135.838 144.607C131.614 135.508 129.664 125.109 129.664 113.085C129.664 92.9366 136.813 76.038 151.437 61.7392C165.736 47.4404 182.96 40.616 203.108 40.616C223.581 40.616 241.13 47.4405 256.078 61.4143C270.702 75.3882 278.177 92.2868 278.177 112.435V182.954H246.004V111.46C246.004 100.086 241.78 90.6618 233.005 82.8625C224.556 75.0631 214.157 71.1635 202.783 71.1635C191.409 71.1635 181.335 75.3881 173.21 83.5124C165.086 91.6368 160.861 101.711 160.861 113.085C160.861 125.109 165.086 135.508 173.21 143.957C181.335 152.407 191.409 156.956 203.433 156.956C210.582 156.956 216.757 155.981 221.956 153.707C227.156 151.757 232.03 147.857 236.58 142.658Z" fill="#29283A"/>
<path d="M334.722 183.604L300.6 183.279V103.661C300.6 91.6366 302.875 80.9125 307.099 72.1382C311.649 63.364 318.473 55.5647 328.223 49.0652C334.072 45.1655 339.922 42.2407 345.121 40.2909C350.321 38.666 356.17 37.6912 362.345 37.6912C363.97 37.6912 365.92 37.6911 367.869 38.0161C370.144 38.341 372.419 38.666 375.344 38.9909V71.1633C372.419 70.1884 369.169 69.8634 365.919 69.8634C359.745 69.8634 353.571 72.1382 347.721 76.3628C343.496 79.2876 340.247 82.8623 337.972 86.762C335.697 90.6617 334.722 95.2113 334.722 100.411V183.604Z" fill="#29283A"/>
<path d="M491.359 176.779C482.585 181.004 472.51 183.279 461.786 183.279C444.238 183.279 428.639 178.079 414.665 168.005C400.042 157.281 391.917 143.957 389.967 128.033C389.317 122.834 388.993 118.284 388.993 114.385C388.993 91.9614 395.817 73.7629 409.466 60.114C422.79 47.1151 439.688 40.2908 460.162 40.2908C479.985 40.2908 496.884 46.7901 511.182 59.4641C525.481 72.138 532.956 88.0618 532.956 106.91V178.079C532.956 194.003 526.131 207.327 512.807 217.726C499.808 227.8 484.86 233 466.986 233C465.686 233 464.711 233 464.386 233C458.862 233 454.312 232.675 450.412 232.35C446.838 232.025 442.613 231.05 437.739 229.425V198.878C442.288 200.177 446.513 201.152 449.763 201.802C453.337 202.127 457.562 202.452 462.761 202.452C466.986 202.452 471.861 201.802 476.735 200.827C481.61 199.852 484.86 198.878 486.809 197.903C491.684 195.628 494.934 193.353 496.884 191.078C500.133 187.828 501.758 183.279 501.758 178.079V108.86C501.758 97.8109 497.208 89.0367 488.434 81.8873C479.66 74.7379 469.261 71.1632 457.562 71.1632C447.163 71.1632 438.064 75.0629 430.264 83.1872C422.465 91.3116 418.89 100.411 418.89 111.135C418.89 113.085 419.215 115.034 419.54 116.984C421.49 128.033 426.689 137.133 435.139 143.307C442.938 149.157 452.037 152.406 462.111 152.406C474.135 152.406 483.885 148.507 491.359 140.382V176.779Z" fill="#29283A"/>
<path d="M660.02 142.658V180.354C648.646 185.879 637.597 188.479 626.548 188.479C609.649 188.479 593.726 182.304 579.102 169.63C570.002 161.831 563.503 153.707 559.278 144.607C555.379 135.833 553.104 125.109 553.104 113.085C553.104 92.9366 560.253 76.038 574.877 61.7392C589.176 47.4404 606.399 40.616 626.548 40.616C647.021 40.616 664.57 47.4405 679.518 61.4143C694.142 75.3882 701.617 92.2868 701.617 112.435V182.954H669.444V111.46C669.444 100.086 665.22 90.6618 656.445 82.8625C647.671 75.0631 637.597 71.1635 626.223 71.1635C614.524 71.1635 604.774 75.3881 596.65 83.5124C588.526 91.6368 584.301 101.711 584.301 113.085C584.301 125.109 588.526 135.508 596.65 143.957C604.774 152.407 614.849 156.956 626.873 156.956C634.022 156.956 640.197 155.981 645.396 153.707C650.596 151.757 655.47 147.857 660.02 142.658Z" fill="#29283A"/>
<path d="M740.613 39.6407C734.764 39.6407 730.214 37.6909 726.964 34.1162C723.715 30.2165 722.09 25.9919 722.09 20.7923C722.09 15.9177 723.715 11.693 726.964 8.11831C730.214 4.54361 734.764 2.91882 740.613 2.91882C745.813 2.91882 750.363 4.86862 753.612 8.7683C756.537 12.343 757.837 16.5677 757.837 21.4423C757.837 26.3169 756.212 30.5416 753.287 34.4412C750.362 37.691 746.138 39.6407 740.613 39.6407ZM725.014 48.415H755.887V183.279H725.014V48.415Z" fill="#29283A"/>
<path d="M778.636 183.604V102.685C778.636 85.137 785.135 69.8631 797.809 57.5142C810.483 45.1652 825.757 38.6658 843.63 38.6658C861.179 38.6658 876.128 44.8402 888.477 57.5142C900.826 69.8631 907 85.137 907 102.685V183.604H873.853V101.71C873.853 93.5861 870.603 86.4367 864.429 80.5872C857.929 74.7377 850.455 71.8131 842.005 71.8131C833.881 71.8131 826.732 74.7377 820.557 80.2623C814.383 85.7868 811.458 92.9363 811.458 101.061V183.604H778.636Z" fill="#29283A"/>
</svg>
