<svg width="402" height="402" viewBox="0 0 402 402" fill="none" xmlns="http://www.w3.org/2000/svg">
<path d="M283.131 1H118.871C60.9035 1 12.7442 42.8564 2.88125 97.9875H150.864V97.832H268.316C285.736 97.832 299.768 104.61 310.404 118.162C319.924 130.301 324.688 144.865 324.688 161.857C324.688 169.342 323.597 176.474 321.42 183.251C319.24 190.029 315.973 195.945 311.619 201.002C315.669 206.168 318.761 212.272 320.888 219.311C323.016 226.353 324.079 233.57 324.079 240.963C324.079 257.881 319.419 272.316 310.1 284.267C299.768 297.539 285.84 304.171 268.316 304.171H172.591C160.591 304.171 150.864 294.442 150.864 282.443C150.864 270.443 160.593 260.716 172.591 260.716H260.719C265.681 260.716 269.684 258.75 272.722 254.814C275.457 251.283 276.824 246.996 276.824 241.953C276.824 237.011 275.506 232.875 272.873 229.544C269.934 225.812 265.884 223.946 260.717 223.946H173.806C161.136 223.946 150.863 213.674 150.863 201.002C150.863 188.331 161.134 178.058 173.806 178.058H260.717C265.883 178.058 269.934 176.193 272.873 172.46C275.506 169.132 276.824 164.993 276.824 160.051C276.824 155.008 275.506 150.723 272.873 147.191C269.934 143.257 265.884 141.288 260.717 141.288H235.888V141.365H1V283.131C1 348.23 53.7732 401.001 118.871 401.001H283.13C348.228 401.001 401 348.228 401 283.131V118.871C401.001 53.7732 348.228 1 283.131 1ZM122.104 282.482C122.104 294.459 112.394 304.169 100.416 304.169C88.4386 304.169 78.7284 294.459 78.7284 282.482C78.7284 270.504 88.4386 260.794 100.416 260.794C112.394 260.792 122.104 270.503 122.104 282.482Z" fill="#2979FF" stroke="white" stroke-miterlimit="10"/>
</svg>
